M48
INCH,TZ
T1C0.020
T2C0.040
T3C0.047
T4C0.051
T5C0.126
%
G90
G05
T1
X74350Y-52725
X74350Y-53250
X74350Y-53750
X74850Y-52725
X74850Y-53250
X74850Y-53750
X74850Y-54275
X76175Y-55125
X76900Y-49750
X77700Y-53200
X77700Y-53700
X77700Y-54200
X77700Y-54700
X77700Y-55200
X78200Y-53200
X78200Y-53700
X78200Y-54200
X78200Y-54700
X78200Y-55200
X78681Y-54200
X78700Y-53200
X78700Y-53700
X78700Y-54700
X78700Y-55200
X79200Y-53200
X79200Y-53700
X79200Y-54200
X79200Y-54700
X79200Y-55200
T2
X78200Y-49250
X78200Y-50250
X78200Y-51250
X79200Y-49250
X79200Y-50250
X79200Y-51250
T3
X72200Y-47381
X72200Y-49350
X72200Y-51319
T4
X84800Y-48500
X84800Y-50469
X84800Y-52600
X84800Y-54569
T5
X81496Y-48031
T0
M30
