G04 #@! TF.FileFunction,Copper,L2,Bot,Signal*
%FSLAX46Y46*%
G04 Gerber Fmt 4.6, Leading zero omitted, Abs format (unit mm)*
G04 Created by KiCad (PCBNEW 4.0.1-3.201512161002+6197~38~ubuntu15.10.1-stable) date 2015-12-20T00:19:31 CET*
%MOMM*%
G01*
G04 APERTURE LIST*
%ADD10C,0.100000*%
%ADD11C,2.499360*%
%ADD12R,2.500000X2.500000*%
%ADD13C,2.500000*%
%ADD14R,1.727200X1.727200*%
%ADD15O,1.727200X1.727200*%
%ADD16C,3.200000*%
%ADD17C,0.914400*%
%ADD18C,0.406400*%
%ADD19C,0.812800*%
%ADD20C,0.254000*%
G04 APERTURE END LIST*
D10*
D11*
X183388000Y-125349000D03*
X183388000Y-120347740D03*
X183388000Y-130350260D03*
D12*
X215392000Y-133604000D03*
D13*
X215392000Y-138604000D03*
D12*
X215392000Y-123190000D03*
D13*
X215392000Y-128190000D03*
D14*
X201168000Y-130175000D03*
D15*
X198628000Y-130175000D03*
X201168000Y-127635000D03*
X198628000Y-127635000D03*
X201168000Y-125095000D03*
X198628000Y-125095000D03*
D16*
X207000000Y-122000000D03*
D17*
X193484500Y-140017500D03*
X190119000Y-137858500D03*
X190119000Y-135255000D03*
X190119000Y-133921500D03*
X188849000Y-133921500D03*
X188849000Y-135255000D03*
X188849000Y-136525000D03*
X190119000Y-136525000D03*
X195326000Y-126365000D03*
X199849000Y-137668000D03*
X201168000Y-140208000D03*
X201168000Y-138938000D03*
X201168000Y-137668000D03*
X201168000Y-136398000D03*
X201168000Y-135128000D03*
X199898000Y-140208000D03*
X199898000Y-138938000D03*
X199898000Y-136398000D03*
X199898000Y-135128000D03*
X198628000Y-140208000D03*
X198628000Y-138938000D03*
X198628000Y-137668000D03*
X198628000Y-136398000D03*
X198628000Y-135128000D03*
X197358000Y-135128000D03*
X197358000Y-140208000D03*
X197358000Y-138938000D03*
X197358000Y-137668000D03*
X197358000Y-136398000D03*
D18*
X193484500Y-140017500D02*
X194310000Y-139192000D01*
X194310000Y-134556500D02*
X196278500Y-132588000D01*
X194310000Y-139192000D02*
X194310000Y-134556500D01*
X196278500Y-132588000D02*
X209550000Y-132588000D01*
X209550000Y-132588000D02*
X210566000Y-133604000D01*
X210566000Y-133604000D02*
X215392000Y-133604000D01*
D19*
X209296000Y-125730000D02*
X211836000Y-123190000D01*
X211836000Y-123190000D02*
X215392000Y-123190000D01*
X205613000Y-125730000D02*
X209296000Y-125730000D01*
X201993500Y-122110500D02*
X205613000Y-125730000D01*
X200025000Y-122110500D02*
X201993500Y-122110500D01*
X198628000Y-123507500D02*
X200025000Y-122110500D01*
X198628000Y-125095000D02*
X198628000Y-123507500D01*
D18*
X195326000Y-126365000D02*
X195326000Y-123380500D01*
X195326000Y-123380500D02*
X192293240Y-120347740D01*
X192293240Y-120347740D02*
X183388000Y-120347740D01*
X190119000Y-133858000D02*
X190119000Y-135128000D01*
X188849000Y-135128000D02*
X188849000Y-133858000D01*
X195326000Y-126365000D02*
X195326000Y-128778000D01*
X195326000Y-128778000D02*
X196723000Y-130175000D01*
X196723000Y-130175000D02*
X198628000Y-130175000D01*
D20*
G36*
X194310000Y-133371106D02*
X193717303Y-133963803D01*
X193535604Y-134235734D01*
X193535604Y-134235735D01*
X193471800Y-134556500D01*
X193471800Y-138844806D01*
X193391388Y-138925218D01*
X193268201Y-138925111D01*
X192866627Y-139091038D01*
X192559118Y-139398011D01*
X192392490Y-139799295D01*
X192392111Y-140233799D01*
X192558038Y-140635373D01*
X192865011Y-140942882D01*
X193266295Y-141109510D01*
X193700799Y-141109889D01*
X194102373Y-140943962D01*
X194310000Y-140736697D01*
X194310000Y-142800000D01*
X177875000Y-142800000D01*
X177875000Y-130723501D01*
X181502994Y-130723501D01*
X181789314Y-131416451D01*
X182319021Y-131947082D01*
X183011469Y-132234612D01*
X183761241Y-132235266D01*
X184454191Y-131948946D01*
X184984822Y-131419239D01*
X185272352Y-130726791D01*
X185273006Y-129977019D01*
X184986686Y-129284069D01*
X184456979Y-128753438D01*
X183764531Y-128465908D01*
X183014759Y-128465254D01*
X182321809Y-128751574D01*
X181791178Y-129281281D01*
X181503648Y-129973729D01*
X181502994Y-130723501D01*
X177875000Y-130723501D01*
X177875000Y-125722241D01*
X181502994Y-125722241D01*
X181789314Y-126415191D01*
X182319021Y-126945822D01*
X183011469Y-127233352D01*
X183761241Y-127234006D01*
X184454191Y-126947686D01*
X184984822Y-126417979D01*
X185272352Y-125725531D01*
X185273006Y-124975759D01*
X184986686Y-124282809D01*
X184456979Y-123752178D01*
X183764531Y-123464648D01*
X183014759Y-123463994D01*
X182321809Y-123750314D01*
X181791178Y-124280021D01*
X181503648Y-124972469D01*
X181502994Y-125722241D01*
X177875000Y-125722241D01*
X177875000Y-118820000D01*
X194310000Y-118820000D01*
X194310000Y-133371106D01*
X194310000Y-133371106D01*
G37*
X194310000Y-133371106D02*
X193717303Y-133963803D01*
X193535604Y-134235734D01*
X193535604Y-134235735D01*
X193471800Y-134556500D01*
X193471800Y-138844806D01*
X193391388Y-138925218D01*
X193268201Y-138925111D01*
X192866627Y-139091038D01*
X192559118Y-139398011D01*
X192392490Y-139799295D01*
X192392111Y-140233799D01*
X192558038Y-140635373D01*
X192865011Y-140942882D01*
X193266295Y-141109510D01*
X193700799Y-141109889D01*
X194102373Y-140943962D01*
X194310000Y-140736697D01*
X194310000Y-142800000D01*
X177875000Y-142800000D01*
X177875000Y-130723501D01*
X181502994Y-130723501D01*
X181789314Y-131416451D01*
X182319021Y-131947082D01*
X183011469Y-132234612D01*
X183761241Y-132235266D01*
X184454191Y-131948946D01*
X184984822Y-131419239D01*
X185272352Y-130726791D01*
X185273006Y-129977019D01*
X184986686Y-129284069D01*
X184456979Y-128753438D01*
X183764531Y-128465908D01*
X183014759Y-128465254D01*
X182321809Y-128751574D01*
X181791178Y-129281281D01*
X181503648Y-129973729D01*
X181502994Y-130723501D01*
X177875000Y-130723501D01*
X177875000Y-125722241D01*
X181502994Y-125722241D01*
X181789314Y-126415191D01*
X182319021Y-126945822D01*
X183011469Y-127233352D01*
X183761241Y-127234006D01*
X184454191Y-126947686D01*
X184984822Y-126417979D01*
X185272352Y-125725531D01*
X185273006Y-124975759D01*
X184986686Y-124282809D01*
X184456979Y-123752178D01*
X183764531Y-123464648D01*
X183014759Y-123463994D01*
X182321809Y-123750314D01*
X181791178Y-124280021D01*
X181503648Y-124972469D01*
X181502994Y-125722241D01*
X177875000Y-125722241D01*
X177875000Y-118820000D01*
X194310000Y-118820000D01*
X194310000Y-133371106D01*
G36*
X218365000Y-142800000D02*
X195072000Y-142800000D01*
X195072000Y-139531318D01*
X195084396Y-139512766D01*
X195148200Y-139192000D01*
X195148200Y-134903694D01*
X196625694Y-133426200D01*
X209202806Y-133426200D01*
X209973303Y-134196697D01*
X210245234Y-134378396D01*
X210566000Y-134442200D01*
X213494560Y-134442200D01*
X213494560Y-134854000D01*
X213538838Y-135089317D01*
X213677910Y-135305441D01*
X213890110Y-135450431D01*
X214142000Y-135501440D01*
X216642000Y-135501440D01*
X216877317Y-135457162D01*
X217093441Y-135318090D01*
X217238431Y-135105890D01*
X217289440Y-134854000D01*
X217289440Y-132354000D01*
X217245162Y-132118683D01*
X217106090Y-131902559D01*
X216893890Y-131757569D01*
X216642000Y-131706560D01*
X214142000Y-131706560D01*
X213906683Y-131750838D01*
X213690559Y-131889910D01*
X213545569Y-132102110D01*
X213494560Y-132354000D01*
X213494560Y-132765800D01*
X210913194Y-132765800D01*
X210142697Y-131995303D01*
X209870766Y-131813604D01*
X209550000Y-131749800D01*
X196278500Y-131749800D01*
X195957735Y-131813604D01*
X195685803Y-131995303D01*
X195072000Y-132609106D01*
X195072000Y-129709394D01*
X196130303Y-130767697D01*
X196402234Y-130949396D01*
X196723000Y-131013200D01*
X197390989Y-131013200D01*
X197538971Y-131234670D01*
X198025152Y-131559526D01*
X198598641Y-131673600D01*
X198657359Y-131673600D01*
X199230848Y-131559526D01*
X199696442Y-131248426D01*
X199701238Y-131273917D01*
X199840310Y-131490041D01*
X200052510Y-131635031D01*
X200304400Y-131686040D01*
X202031600Y-131686040D01*
X202266917Y-131641762D01*
X202483041Y-131502690D01*
X202628031Y-131290490D01*
X202679040Y-131038600D01*
X202679040Y-129311400D01*
X202634762Y-129076083D01*
X202495690Y-128859959D01*
X202283490Y-128714969D01*
X202239869Y-128706136D01*
X202257029Y-128694670D01*
X202344804Y-128563305D01*
X213506674Y-128563305D01*
X213793043Y-129256372D01*
X214322839Y-129787093D01*
X215015405Y-130074672D01*
X215765305Y-130075326D01*
X216458372Y-129788957D01*
X216989093Y-129259161D01*
X217276672Y-128566595D01*
X217277326Y-127816695D01*
X216990957Y-127123628D01*
X216461161Y-126592907D01*
X215768595Y-126305328D01*
X215018695Y-126304674D01*
X214325628Y-126591043D01*
X213794907Y-127120839D01*
X213507328Y-127813405D01*
X213506674Y-128563305D01*
X202344804Y-128563305D01*
X202581885Y-128208489D01*
X202695959Y-127635000D01*
X202581885Y-127061511D01*
X202257029Y-126575330D01*
X201942248Y-126365000D01*
X202257029Y-126154670D01*
X202581885Y-125668489D01*
X202695959Y-125095000D01*
X202581885Y-124521511D01*
X202257029Y-124035330D01*
X201770848Y-123710474D01*
X201197359Y-123596400D01*
X201138641Y-123596400D01*
X200565152Y-123710474D01*
X200078971Y-124035330D01*
X199898000Y-124306172D01*
X199717029Y-124035330D01*
X199669400Y-124003505D01*
X199669400Y-123938862D01*
X200456362Y-123151900D01*
X201562138Y-123151900D01*
X204876619Y-126466381D01*
X205214473Y-126692128D01*
X205613000Y-126771400D01*
X209296000Y-126771400D01*
X209694527Y-126692128D01*
X210032381Y-126466381D01*
X212267362Y-124231400D01*
X213494560Y-124231400D01*
X213494560Y-124440000D01*
X213538838Y-124675317D01*
X213677910Y-124891441D01*
X213890110Y-125036431D01*
X214142000Y-125087440D01*
X216642000Y-125087440D01*
X216877317Y-125043162D01*
X217093441Y-124904090D01*
X217238431Y-124691890D01*
X217289440Y-124440000D01*
X217289440Y-121940000D01*
X217245162Y-121704683D01*
X217106090Y-121488559D01*
X216893890Y-121343569D01*
X216642000Y-121292560D01*
X214142000Y-121292560D01*
X213906683Y-121336838D01*
X213690559Y-121475910D01*
X213545569Y-121688110D01*
X213494560Y-121940000D01*
X213494560Y-122148600D01*
X211836000Y-122148600D01*
X211437473Y-122227872D01*
X211116082Y-122442619D01*
X211099619Y-122453619D01*
X208864638Y-124688600D01*
X206044362Y-124688600D01*
X203798381Y-122442619D01*
X204764613Y-122442619D01*
X205104155Y-123264372D01*
X205732321Y-123893636D01*
X206553481Y-124234611D01*
X207442619Y-124235387D01*
X208264372Y-123895845D01*
X208893636Y-123267679D01*
X209234611Y-122446519D01*
X209235387Y-121557381D01*
X208895845Y-120735628D01*
X208267679Y-120106364D01*
X207446519Y-119765389D01*
X206557381Y-119764613D01*
X205735628Y-120104155D01*
X205106364Y-120732321D01*
X204765389Y-121553481D01*
X204764613Y-122442619D01*
X203798381Y-122442619D01*
X202729881Y-121374119D01*
X202607819Y-121292560D01*
X202392027Y-121148372D01*
X201993500Y-121069100D01*
X200025000Y-121069100D01*
X199626473Y-121148372D01*
X199410681Y-121292560D01*
X199288619Y-121374119D01*
X197891619Y-122771119D01*
X197665872Y-123108973D01*
X197586600Y-123507500D01*
X197586600Y-124003505D01*
X197538971Y-124035330D01*
X197214115Y-124521511D01*
X197100041Y-125095000D01*
X197214115Y-125668489D01*
X197538971Y-126154670D01*
X197853752Y-126365000D01*
X197538971Y-126575330D01*
X197214115Y-127061511D01*
X197100041Y-127635000D01*
X197214115Y-128208489D01*
X197538971Y-128694670D01*
X197853752Y-128905000D01*
X197538971Y-129115330D01*
X197390989Y-129336800D01*
X197070194Y-129336800D01*
X196164200Y-128430806D01*
X196164200Y-127071519D01*
X196251382Y-126984489D01*
X196418010Y-126583205D01*
X196418389Y-126148701D01*
X196252462Y-125747127D01*
X196164200Y-125658711D01*
X196164200Y-123380500D01*
X196100396Y-123059735D01*
X196100396Y-123059734D01*
X195918697Y-122787803D01*
X195072000Y-121941106D01*
X195072000Y-118820000D01*
X218365000Y-118820000D01*
X218365000Y-142800000D01*
X218365000Y-142800000D01*
G37*
X218365000Y-142800000D02*
X195072000Y-142800000D01*
X195072000Y-139531318D01*
X195084396Y-139512766D01*
X195148200Y-139192000D01*
X195148200Y-134903694D01*
X196625694Y-133426200D01*
X209202806Y-133426200D01*
X209973303Y-134196697D01*
X210245234Y-134378396D01*
X210566000Y-134442200D01*
X213494560Y-134442200D01*
X213494560Y-134854000D01*
X213538838Y-135089317D01*
X213677910Y-135305441D01*
X213890110Y-135450431D01*
X214142000Y-135501440D01*
X216642000Y-135501440D01*
X216877317Y-135457162D01*
X217093441Y-135318090D01*
X217238431Y-135105890D01*
X217289440Y-134854000D01*
X217289440Y-132354000D01*
X217245162Y-132118683D01*
X217106090Y-131902559D01*
X216893890Y-131757569D01*
X216642000Y-131706560D01*
X214142000Y-131706560D01*
X213906683Y-131750838D01*
X213690559Y-131889910D01*
X213545569Y-132102110D01*
X213494560Y-132354000D01*
X213494560Y-132765800D01*
X210913194Y-132765800D01*
X210142697Y-131995303D01*
X209870766Y-131813604D01*
X209550000Y-131749800D01*
X196278500Y-131749800D01*
X195957735Y-131813604D01*
X195685803Y-131995303D01*
X195072000Y-132609106D01*
X195072000Y-129709394D01*
X196130303Y-130767697D01*
X196402234Y-130949396D01*
X196723000Y-131013200D01*
X197390989Y-131013200D01*
X197538971Y-131234670D01*
X198025152Y-131559526D01*
X198598641Y-131673600D01*
X198657359Y-131673600D01*
X199230848Y-131559526D01*
X199696442Y-131248426D01*
X199701238Y-131273917D01*
X199840310Y-131490041D01*
X200052510Y-131635031D01*
X200304400Y-131686040D01*
X202031600Y-131686040D01*
X202266917Y-131641762D01*
X202483041Y-131502690D01*
X202628031Y-131290490D01*
X202679040Y-131038600D01*
X202679040Y-129311400D01*
X202634762Y-129076083D01*
X202495690Y-128859959D01*
X202283490Y-128714969D01*
X202239869Y-128706136D01*
X202257029Y-128694670D01*
X202344804Y-128563305D01*
X213506674Y-128563305D01*
X213793043Y-129256372D01*
X214322839Y-129787093D01*
X215015405Y-130074672D01*
X215765305Y-130075326D01*
X216458372Y-129788957D01*
X216989093Y-129259161D01*
X217276672Y-128566595D01*
X217277326Y-127816695D01*
X216990957Y-127123628D01*
X216461161Y-126592907D01*
X215768595Y-126305328D01*
X215018695Y-126304674D01*
X214325628Y-126591043D01*
X213794907Y-127120839D01*
X213507328Y-127813405D01*
X213506674Y-128563305D01*
X202344804Y-128563305D01*
X202581885Y-128208489D01*
X202695959Y-127635000D01*
X202581885Y-127061511D01*
X202257029Y-126575330D01*
X201942248Y-126365000D01*
X202257029Y-126154670D01*
X202581885Y-125668489D01*
X202695959Y-125095000D01*
X202581885Y-124521511D01*
X202257029Y-124035330D01*
X201770848Y-123710474D01*
X201197359Y-123596400D01*
X201138641Y-123596400D01*
X200565152Y-123710474D01*
X200078971Y-124035330D01*
X199898000Y-124306172D01*
X199717029Y-124035330D01*
X199669400Y-124003505D01*
X199669400Y-123938862D01*
X200456362Y-123151900D01*
X201562138Y-123151900D01*
X204876619Y-126466381D01*
X205214473Y-126692128D01*
X205613000Y-126771400D01*
X209296000Y-126771400D01*
X209694527Y-126692128D01*
X210032381Y-126466381D01*
X212267362Y-124231400D01*
X213494560Y-124231400D01*
X213494560Y-124440000D01*
X213538838Y-124675317D01*
X213677910Y-124891441D01*
X213890110Y-125036431D01*
X214142000Y-125087440D01*
X216642000Y-125087440D01*
X216877317Y-125043162D01*
X217093441Y-124904090D01*
X217238431Y-124691890D01*
X217289440Y-124440000D01*
X217289440Y-121940000D01*
X217245162Y-121704683D01*
X217106090Y-121488559D01*
X216893890Y-121343569D01*
X216642000Y-121292560D01*
X214142000Y-121292560D01*
X213906683Y-121336838D01*
X213690559Y-121475910D01*
X213545569Y-121688110D01*
X213494560Y-121940000D01*
X213494560Y-122148600D01*
X211836000Y-122148600D01*
X211437473Y-122227872D01*
X211116082Y-122442619D01*
X211099619Y-122453619D01*
X208864638Y-124688600D01*
X206044362Y-124688600D01*
X203798381Y-122442619D01*
X204764613Y-122442619D01*
X205104155Y-123264372D01*
X205732321Y-123893636D01*
X206553481Y-124234611D01*
X207442619Y-124235387D01*
X208264372Y-123895845D01*
X208893636Y-123267679D01*
X209234611Y-122446519D01*
X209235387Y-121557381D01*
X208895845Y-120735628D01*
X208267679Y-120106364D01*
X207446519Y-119765389D01*
X206557381Y-119764613D01*
X205735628Y-120104155D01*
X205106364Y-120732321D01*
X204765389Y-121553481D01*
X204764613Y-122442619D01*
X203798381Y-122442619D01*
X202729881Y-121374119D01*
X202607819Y-121292560D01*
X202392027Y-121148372D01*
X201993500Y-121069100D01*
X200025000Y-121069100D01*
X199626473Y-121148372D01*
X199410681Y-121292560D01*
X199288619Y-121374119D01*
X197891619Y-122771119D01*
X197665872Y-123108973D01*
X197586600Y-123507500D01*
X197586600Y-124003505D01*
X197538971Y-124035330D01*
X197214115Y-124521511D01*
X197100041Y-125095000D01*
X197214115Y-125668489D01*
X197538971Y-126154670D01*
X197853752Y-126365000D01*
X197538971Y-126575330D01*
X197214115Y-127061511D01*
X197100041Y-127635000D01*
X197214115Y-128208489D01*
X197538971Y-128694670D01*
X197853752Y-128905000D01*
X197538971Y-129115330D01*
X197390989Y-129336800D01*
X197070194Y-129336800D01*
X196164200Y-128430806D01*
X196164200Y-127071519D01*
X196251382Y-126984489D01*
X196418010Y-126583205D01*
X196418389Y-126148701D01*
X196252462Y-125747127D01*
X196164200Y-125658711D01*
X196164200Y-123380500D01*
X196100396Y-123059735D01*
X196100396Y-123059734D01*
X195918697Y-122787803D01*
X195072000Y-121941106D01*
X195072000Y-118820000D01*
X218365000Y-118820000D01*
X218365000Y-142800000D01*
M02*
