G04 #@! TF.FileFunction,Legend,Top*
%FSLAX46Y46*%
G04 Gerber Fmt 4.6, Leading zero omitted, Abs format (unit mm)*
G04 Created by KiCad (PCBNEW 4.0.1-3.201512161002+6197~38~ubuntu15.10.1-stable) date 2015-12-20T00:19:31 CET*
%MOMM*%
G01*
G04 APERTURE LIST*
%ADD10C,0.100000*%
%ADD11C,0.150000*%
G04 APERTURE END LIST*
D10*
D11*
X177888900Y-120299480D02*
X181437280Y-120299480D01*
X177888900Y-122049540D02*
X177888900Y-120299480D01*
X177888900Y-128648460D02*
X177888900Y-130398520D01*
X177888900Y-130398520D02*
X181488080Y-130398520D01*
X179288440Y-125349000D02*
X181538880Y-125298200D01*
X179288440Y-125349000D02*
X180289200Y-124399040D01*
X179288440Y-125298200D02*
X180238400Y-126298960D01*
X179288440Y-128648460D02*
X176588420Y-128648460D01*
X176588420Y-128648460D02*
X176588420Y-122049540D01*
X176588420Y-122049540D02*
X179288440Y-122049540D01*
X179288440Y-122049540D02*
X179288440Y-128648460D01*
X192405000Y-125730000D02*
X192405000Y-130810000D01*
X192405000Y-130810000D02*
X187833000Y-130810000D01*
X187833000Y-130810000D02*
X187833000Y-125730000D01*
X187833000Y-125730000D02*
X192405000Y-125730000D01*
X190881000Y-125730000D02*
X190881000Y-126238000D01*
X190881000Y-126238000D02*
X189611000Y-126238000D01*
X189611000Y-126238000D02*
X189611000Y-125730000D01*
X181522000Y-136172000D02*
X181522000Y-137172000D01*
X183222000Y-137172000D02*
X183222000Y-136172000D01*
X189619000Y-125310000D02*
X190619000Y-125310000D01*
X190619000Y-123610000D02*
X189619000Y-123610000D01*
X211292000Y-136104000D02*
X210792000Y-136104000D01*
X217292000Y-138604000D02*
G75*
G03X217292000Y-138604000I-2000000J0D01*
G01*
X217292000Y-133604000D02*
G75*
G03X217292000Y-133604000I-2000000J0D01*
G01*
X212792000Y-131104000D02*
X212792000Y-141104000D01*
X217692000Y-131104000D02*
X217692000Y-141104000D01*
X211292000Y-131104000D02*
X211292000Y-141104000D01*
X210792000Y-131104000D02*
X210792000Y-141104000D01*
X210792000Y-141104000D02*
X220592000Y-141104000D01*
X220592000Y-141104000D02*
X220592000Y-131104000D01*
X220592000Y-131104000D02*
X210792000Y-131104000D01*
X211292000Y-125690000D02*
X210792000Y-125690000D01*
X217292000Y-128190000D02*
G75*
G03X217292000Y-128190000I-2000000J0D01*
G01*
X217292000Y-123190000D02*
G75*
G03X217292000Y-123190000I-2000000J0D01*
G01*
X212792000Y-120690000D02*
X212792000Y-130690000D01*
X217692000Y-120690000D02*
X217692000Y-130690000D01*
X211292000Y-120690000D02*
X211292000Y-130690000D01*
X210792000Y-120690000D02*
X210792000Y-130690000D01*
X210792000Y-130690000D02*
X220592000Y-130690000D01*
X220592000Y-130690000D02*
X220592000Y-120690000D01*
X220592000Y-120690000D02*
X210792000Y-120690000D01*
X202438000Y-128905000D02*
X202438000Y-123825000D01*
X202718000Y-131725000D02*
X201168000Y-131725000D01*
X199898000Y-131445000D02*
X199898000Y-128905000D01*
X199898000Y-128905000D02*
X202438000Y-128905000D01*
X202438000Y-123825000D02*
X197358000Y-123825000D01*
X197358000Y-123825000D02*
X197358000Y-128905000D01*
X202718000Y-131725000D02*
X202718000Y-130175000D01*
X197358000Y-131445000D02*
X199898000Y-131445000D01*
X197358000Y-128905000D02*
X197358000Y-131445000D01*
X179411000Y-133342000D02*
X179411000Y-132342000D01*
X180761000Y-132342000D02*
X180761000Y-133342000D01*
X189492000Y-119975000D02*
X190492000Y-119975000D01*
X190492000Y-121325000D02*
X189492000Y-121325000D01*
X187325000Y-132969000D02*
X184277000Y-132969000D01*
X184277000Y-132969000D02*
X184277000Y-140081000D01*
X184277000Y-140081000D02*
X187325000Y-140081000D01*
X190373000Y-132969000D02*
X191135000Y-132969000D01*
X191135000Y-132969000D02*
X193421000Y-134493000D01*
X193421000Y-134493000D02*
X193421000Y-138557000D01*
X193421000Y-138557000D02*
X191135000Y-140081000D01*
X191135000Y-140081000D02*
X190373000Y-140081000D01*
X209286000Y-122000000D02*
G75*
G03X209286000Y-122000000I-2286000J0D01*
G01*
X182741962Y-134300221D02*
X182408628Y-133824030D01*
X182170533Y-134300221D02*
X182170533Y-133300221D01*
X182551486Y-133300221D01*
X182646724Y-133347840D01*
X182694343Y-133395459D01*
X182741962Y-133490697D01*
X182741962Y-133633554D01*
X182694343Y-133728792D01*
X182646724Y-133776411D01*
X182551486Y-133824030D01*
X182170533Y-133824030D01*
X183027676Y-133300221D02*
X183361009Y-134300221D01*
X183694343Y-133300221D01*
X184551486Y-134300221D02*
X183980057Y-134300221D01*
X184265771Y-134300221D02*
X184265771Y-133300221D01*
X184170533Y-133443078D01*
X184075295Y-133538316D01*
X183980057Y-133585935D01*
X191841381Y-129246190D02*
X190841381Y-129246190D01*
X191746143Y-128198571D02*
X191793762Y-128246190D01*
X191841381Y-128389047D01*
X191841381Y-128484285D01*
X191793762Y-128627143D01*
X191698524Y-128722381D01*
X191603286Y-128770000D01*
X191412810Y-128817619D01*
X191269952Y-128817619D01*
X191079476Y-128770000D01*
X190984238Y-128722381D01*
X190889000Y-128627143D01*
X190841381Y-128484285D01*
X190841381Y-128389047D01*
X190889000Y-128246190D01*
X190936619Y-128198571D01*
X191841381Y-127246190D02*
X191841381Y-127817619D01*
X191841381Y-127531905D02*
X190841381Y-127531905D01*
X190984238Y-127627143D01*
X191079476Y-127722381D01*
X191127095Y-127817619D01*
X180629143Y-136838666D02*
X180676762Y-136886285D01*
X180724381Y-137029142D01*
X180724381Y-137124380D01*
X180676762Y-137267238D01*
X180581524Y-137362476D01*
X180486286Y-137410095D01*
X180295810Y-137457714D01*
X180152952Y-137457714D01*
X179962476Y-137410095D01*
X179867238Y-137362476D01*
X179772000Y-137267238D01*
X179724381Y-137124380D01*
X179724381Y-137029142D01*
X179772000Y-136886285D01*
X179819619Y-136838666D01*
X180724381Y-135886285D02*
X180724381Y-136457714D01*
X180724381Y-136172000D02*
X179724381Y-136172000D01*
X179867238Y-136267238D01*
X179962476Y-136362476D01*
X180010095Y-136457714D01*
X189952334Y-126917143D02*
X189904715Y-126964762D01*
X189761858Y-127012381D01*
X189666620Y-127012381D01*
X189523762Y-126964762D01*
X189428524Y-126869524D01*
X189380905Y-126774286D01*
X189333286Y-126583810D01*
X189333286Y-126440952D01*
X189380905Y-126250476D01*
X189428524Y-126155238D01*
X189523762Y-126060000D01*
X189666620Y-126012381D01*
X189761858Y-126012381D01*
X189904715Y-126060000D01*
X189952334Y-126107619D01*
X190333286Y-126107619D02*
X190380905Y-126060000D01*
X190476143Y-126012381D01*
X190714239Y-126012381D01*
X190809477Y-126060000D01*
X190857096Y-126107619D01*
X190904715Y-126202857D01*
X190904715Y-126298095D01*
X190857096Y-126440952D01*
X190285667Y-127012381D01*
X190904715Y-127012381D01*
X209944381Y-136842095D02*
X208944381Y-136842095D01*
X208944381Y-136461142D01*
X208992000Y-136365904D01*
X209039619Y-136318285D01*
X209134857Y-136270666D01*
X209277714Y-136270666D01*
X209372952Y-136318285D01*
X209420571Y-136365904D01*
X209468190Y-136461142D01*
X209468190Y-136842095D01*
X209944381Y-135318285D02*
X209944381Y-135889714D01*
X209944381Y-135604000D02*
X208944381Y-135604000D01*
X209087238Y-135699238D01*
X209182476Y-135794476D01*
X209230095Y-135889714D01*
X209944381Y-126428095D02*
X208944381Y-126428095D01*
X208944381Y-126047142D01*
X208992000Y-125951904D01*
X209039619Y-125904285D01*
X209134857Y-125856666D01*
X209277714Y-125856666D01*
X209372952Y-125904285D01*
X209420571Y-125951904D01*
X209468190Y-126047142D01*
X209468190Y-126428095D01*
X209039619Y-125475714D02*
X208992000Y-125428095D01*
X208944381Y-125332857D01*
X208944381Y-125094761D01*
X208992000Y-124999523D01*
X209039619Y-124951904D01*
X209134857Y-124904285D01*
X209230095Y-124904285D01*
X209372952Y-124951904D01*
X209944381Y-125523333D01*
X209944381Y-124904285D01*
X200429905Y-135727381D02*
X200429905Y-134727381D01*
X200810858Y-134727381D01*
X200906096Y-134775000D01*
X200953715Y-134822619D01*
X201001334Y-134917857D01*
X201001334Y-135060714D01*
X200953715Y-135155952D01*
X200906096Y-135203571D01*
X200810858Y-135251190D01*
X200429905Y-135251190D01*
X201334667Y-134727381D02*
X201953715Y-134727381D01*
X201620381Y-135108333D01*
X201763239Y-135108333D01*
X201858477Y-135155952D01*
X201906096Y-135203571D01*
X201953715Y-135298810D01*
X201953715Y-135536905D01*
X201906096Y-135632143D01*
X201858477Y-135679762D01*
X201763239Y-135727381D01*
X201477524Y-135727381D01*
X201382286Y-135679762D01*
X201334667Y-135632143D01*
X182438381Y-133008666D02*
X181962190Y-133342000D01*
X182438381Y-133580095D02*
X181438381Y-133580095D01*
X181438381Y-133199142D01*
X181486000Y-133103904D01*
X181533619Y-133056285D01*
X181628857Y-133008666D01*
X181771714Y-133008666D01*
X181866952Y-133056285D01*
X181914571Y-133103904D01*
X181962190Y-133199142D01*
X181962190Y-133580095D01*
X182438381Y-132056285D02*
X182438381Y-132627714D01*
X182438381Y-132342000D02*
X181438381Y-132342000D01*
X181581238Y-132437238D01*
X181676476Y-132532476D01*
X181724095Y-132627714D01*
X189825334Y-123002381D02*
X189492000Y-122526190D01*
X189253905Y-123002381D02*
X189253905Y-122002381D01*
X189634858Y-122002381D01*
X189730096Y-122050000D01*
X189777715Y-122097619D01*
X189825334Y-122192857D01*
X189825334Y-122335714D01*
X189777715Y-122430952D01*
X189730096Y-122478571D01*
X189634858Y-122526190D01*
X189253905Y-122526190D01*
X190206286Y-122097619D02*
X190253905Y-122050000D01*
X190349143Y-122002381D01*
X190587239Y-122002381D01*
X190682477Y-122050000D01*
X190730096Y-122097619D01*
X190777715Y-122192857D01*
X190777715Y-122288095D01*
X190730096Y-122430952D01*
X190158667Y-123002381D01*
X190777715Y-123002381D01*
X195231619Y-137763238D02*
X195184000Y-137858476D01*
X195088762Y-137953714D01*
X194945905Y-138096571D01*
X194898286Y-138191810D01*
X194898286Y-138287048D01*
X195136381Y-138239429D02*
X195088762Y-138334667D01*
X194993524Y-138429905D01*
X194803048Y-138477524D01*
X194469714Y-138477524D01*
X194279238Y-138429905D01*
X194184000Y-138334667D01*
X194136381Y-138239429D01*
X194136381Y-138048952D01*
X194184000Y-137953714D01*
X194279238Y-137858476D01*
X194469714Y-137810857D01*
X194803048Y-137810857D01*
X194993524Y-137858476D01*
X195088762Y-137953714D01*
X195136381Y-138048952D01*
X195136381Y-138239429D01*
X195136381Y-136858476D02*
X195136381Y-137429905D01*
X195136381Y-137144191D02*
X194136381Y-137144191D01*
X194279238Y-137239429D01*
X194374476Y-137334667D01*
X194422095Y-137429905D01*
X189063381Y-137286905D02*
X189872905Y-137286905D01*
X189968143Y-137239286D01*
X190015762Y-137191667D01*
X190063381Y-137096429D01*
X190063381Y-136905952D01*
X190015762Y-136810714D01*
X189968143Y-136763095D01*
X189872905Y-136715476D01*
X189063381Y-136715476D01*
X190063381Y-135715476D02*
X190063381Y-136286905D01*
X190063381Y-136001191D02*
X189063381Y-136001191D01*
X189206238Y-136096429D01*
X189301476Y-136191667D01*
X189349095Y-136286905D01*
X205666667Y-119404381D02*
X205333333Y-118928190D01*
X205095238Y-119404381D02*
X205095238Y-118404381D01*
X205476191Y-118404381D01*
X205571429Y-118452000D01*
X205619048Y-118499619D01*
X205666667Y-118594857D01*
X205666667Y-118737714D01*
X205619048Y-118832952D01*
X205571429Y-118880571D01*
X205476191Y-118928190D01*
X205095238Y-118928190D01*
X206095238Y-118880571D02*
X206428572Y-118880571D01*
X206571429Y-119404381D02*
X206095238Y-119404381D01*
X206095238Y-118404381D01*
X206571429Y-118404381D01*
X207333334Y-118880571D02*
X207000000Y-118880571D01*
X207000000Y-119404381D02*
X207000000Y-118404381D01*
X207476191Y-118404381D01*
X208000000Y-118404381D02*
X208000000Y-118642476D01*
X207761905Y-118547238D02*
X208000000Y-118642476D01*
X208238096Y-118547238D01*
X207857143Y-118832952D02*
X208000000Y-118642476D01*
X208142858Y-118832952D01*
X208761905Y-118404381D02*
X208761905Y-118642476D01*
X208523810Y-118547238D02*
X208761905Y-118642476D01*
X209000001Y-118547238D01*
X208619048Y-118832952D02*
X208761905Y-118642476D01*
X208904763Y-118832952D01*
M02*
